<svg version="1.1" id="Layer_1" xmlns="http://www.w3.org/2000/svg" xmlns:xlink="http://www.w3.org/1999/xlink" x="0px" y="0px" viewBox="0 0 117 37.2" style="enable-background:new 0 0 117 37.2;" xml:space="preserve">
<g>
<path d="M0,36.6V0h7.7c3.6,0,6.5,0.4,8.7,1.1c2.3,0.7,4.4,1.9,6.2,3.6c3.8,3.4,5.7,8,5.7,13.6c0,5.6-2,10.2-5.9,13.6
	c-2,1.7-4,2.9-6.2,3.6c-2.1,0.7-5,1-8.6,1H0z M5.5,31.4H8c2.5,0,4.5-0.3,6.2-0.8c1.6-0.6,3.1-1.4,4.5-2.6c2.7-2.5,4.1-5.7,4.1-9.7
	c0-4-1.3-7.3-4-9.8c-2.4-2.2-6-3.3-10.7-3.3H5.5V31.4z"></path><path d="M39.4,13.5v13.2c0,3.8,1.5,5.7,4.5,5.7s4.5-1.9,4.5-5.7V13.5h5.3v13.4c0,1.9-0.2,3.5-0.7,4.8c-0.4,1.2-1.2,2.3-2.3,3.2
	c-1.8,1.6-4.1,2.3-6.9,2.3c-2.8,0-5-0.8-6.8-2.3c-1.1-1-1.9-2-2.3-3.2c-0.4-1.2-0.7-2.8-0.7-4.8V13.5H39.4z"></path><path d="M60.5,13.5h5.4v2.1c1.9-1.8,4-2.8,6.3-2.8c2.7,0,4.8,0.8,6.3,2.5c1.3,1.4,1.9,3.8,1.9,7v14.1H75V23.7
	c0-2.3-0.3-3.9-0.9-4.7c-0.6-0.9-1.7-1.3-3.4-1.3c-1.8,0-3,0.6-3.8,1.8c-0.7,1.2-1.1,3.2-1.1,6v11.1h-5.4V13.5z"></path><path d="M100.6,17.4l-4.4,2.3c-0.7-1.4-1.5-2.1-2.6-2.1c-0.5,0-0.9,0.2-1.3,0.5c-0.3,0.3-0.5,0.7-0.5,1.2c0,0.9,1,1.7,3.1,2.6
	c2.8,1.2,4.7,2.3,5.7,3.4c1,1,1.5,2.4,1.5,4.1c0,2.2-0.8,4.1-2.5,5.6c-1.6,1.4-3.5,2.1-5.8,2.1c-3.9,0-6.6-1.9-8.2-5.7l4.5-2.1
	c0.6,1,1.1,1.7,1.4,2.1c0.6,0.6,1.4,0.9,2.3,0.9c1.8,0,2.7-0.8,2.7-2.5c0-0.9-0.7-1.8-2.1-2.7c-1.1-0.5-2.2-1-3.2-1.6
	c-1.5-0.8-2.6-1.5-3.3-2.3c-0.8-1-1.2-2.2-1.2-3.7c0-2,0.7-3.7,2.1-5c1.4-1.3,3.1-2,5.1-2C97,12.9,99.2,14.4,100.6,17.4"></path><polygon points="112.8,18.5 112.8,36.6 107.5,36.6 107.5,18.5 105.2,18.5 105.2,13.5 107.5,13.5 107.5,5 112.8,5 112.8,13.5 
	117,13.5 117,18.5 	"></polygon></g>
</svg>